# xmcd
#
# Track frame offsets:
#	150
#	16208
#	33926
#	48768
#	58599
#	75847
#
# Disc length: 1222 seconds
# Revision: 0
# Processed by: cddbd v1.5.2PL0 Copyright (c) Steve Scherf et al.
# Submitted via: dBpowerAMP V12.0
#
DISCID=3404c406
DTITLE=Various Artist - Album Deluxe
DYEAR=2008
DGENRE=
TTITLE0=Bob Style/What About Now
TTITLE1=Henry Eye/Vacation In The USA
TTITLE2=Henry Eye/ Achy Breaky Heart
TTITLE3=Simon Krebs/ Johnny B. Goode
TTITLE4=Simon Krebs/ I Am  I Said
TTITLE5=Simon Krebs/ Tell the Driver
EXTD=
EXTT0=
EXTT1=
EXTT2=
EXTT3=
EXTT4=
EXTT5=
PLAYORDER=
